<svg xmlns="http://www.w3.org/2000/svg" width="8.335" height="15.442" viewBox="0 0 8.335 15.442"><defs><style>.fb{fill:#fff;}</style></defs><path class="fb" d="M8.021,0l-2,0a3.514,3.514,0,0,0-3.7,3.8V5.553H.314A.315.315,0,0,0,0,5.868V8.406a.315.315,0,0,0,.314.315h2.01v6.406a.315.315,0,0,0,.314.315H5.261a.315.315,0,0,0,.314-.315V8.721h2.35a.315.315,0,0,0,.314-.315V5.868a.315.315,0,0,0-.314-.315H5.576V4.067c0-.714.17-1.076,1.1-1.076H8.02a.315.315,0,0,0,.314-.315V.318A.315.315,0,0,0,8.021,0Z"/></svg>