<svg width="19px" height="21px" viewBox="0 0 19 21" version="1.1" xmlns="http://www.w3.org/2000/svg" xmlns:xlink="http://www.w3.org/1999/xlink">
    <title>location</title>
    <g id="Technology" stroke="none" stroke-width="1" fill="none" fill-rule="evenodd">
        <g id="Technology---2/3-Smart-Battery" transform="translate(-691.000000, -2425.000000)" fill="#FFFFFF" fill-rule="nonzero" stroke="#FFFFFF" stroke-width="0.5">
            <g id="Group-32" transform="translate(100.000000, 2245.000000)">
                <g id="Group-31" transform="translate(591.000000, 78.000000)">
                    <g id="location" transform="translate(1.000000, 103.000000)">
                        <path d="M11.0134538,12.5117395 C11.0503361,12.4517059 11.0872185,12.3927899 11.1241008,12.3316387 C12.7828487,9.58542017 13.6175714,7.18311765 13.6055966,5.19226891 C13.5902614,2.34086018 11.274672,0.0373005444 8.42322203,0.0368173728 C5.5717721,0.0363343531 3.25540226,2.33910923 3.23910084,5.19051261 C3.22696639,7.18311765 4.06184874,9.5857395 5.72059664,12.3316387 C5.75747899,12.3927899 5.79436134,12.4517059 5.8312437,12.5117395 C2.33907563,12.9433109 0.0239495798,14.1914034 0.0239495798,15.6732437 C0.0239495798,17.5336471 3.71218487,18.9908992 8.42226891,18.9908992 C13.1323529,18.9908992 16.8205882,17.5336471 16.8205882,15.6732437 C16.8205882,14.1914034 14.5054622,12.9433109 11.0134538,12.5117395 Z M3.79792437,5.19226891 C3.78849851,3.53364918 4.6680641,1.99700512 6.10302587,1.16514399 C7.53798765,0.333282847 9.30855549,0.333619067 10.7432012,1.16602513 C12.177847,1.99843119 13.0568289,3.53540918 13.0467731,5.19402521 C13.0707227,9.16294958 9.36013445,14.058084 8.42226891,15.2319328 C7.48440336,14.058084 3.77365546,9.16278992 3.79792437,5.19226891 L3.79792437,5.19226891 Z M8.42226891,18.4320756 C3.73278151,18.4320756 0.582773109,17.005479 0.582773109,15.6732437 C0.582773109,14.4917311 2.9184958,13.3924454 6.16047059,13.035916 C6.78748487,14.0149261 7.47166012,14.9561269 8.20943697,15.8546218 C8.26246515,15.9171344 8.34029451,15.953173 8.42226891,15.953173 C8.5042433,15.953173 8.58207267,15.9171344 8.63510084,15.8546218 C9.37293233,14.9561312 10.057161,14.0149303 10.6842269,13.035916 C13.9254034,13.3924454 16.2619244,14.4910924 16.2619244,15.6732437 C16.2617647,17.005479 13.1117563,18.4320756 8.42226891,18.4320756 L8.42226891,18.4320756 Z" id="Shape"></path>
                        <path d="M6.13779832,16.8137227 C4.89784874,16.6550168 3.9025042,16.375605 3.33601681,16.0273782 C3.25092808,15.9729833 3.1431091,15.9687368 3.05400583,16.016271 C2.96490256,16.0638051 2.90838379,16.1557213 2.90617551,16.2566868 C2.90396724,16.3576522 2.95641318,16.4519516 3.04335294,16.5033361 C3.67610084,16.8922773 4.75,17.1994706 6.06690756,17.367916 C6.07876688,17.3694481 6.09071448,17.3701948 6.10267227,17.3701531 C6.2496284,17.369439 6.37091612,17.2550123 6.3801748,17.1083464 C6.38943348,16.9616804 6.28349827,16.8329096 6.13779832,16.8137227 L6.13779832,16.8137227 Z" id="Path"></path>
                        <path d="M8.89152101,16.9472017 C8.50210084,16.9561429 8.09655462,16.9540672 7.7007479,16.9395378 C7.60092369,16.9358586 7.50671946,16.9857144 7.45362104,17.0703251 C7.40052262,17.1549358 7.39659693,17.2614469 7.44332272,17.3497369 C7.49004852,17.4380268 7.58032705,17.4946821 7.68015126,17.4983613 C7.92571429,17.5073025 8.17510924,17.5119328 8.42226891,17.5119328 C8.58480672,17.5119328 8.74558824,17.5100168 8.90461345,17.5061849 C9.05888301,17.5026109 9.18104749,17.3746562 9.17747899,17.2203866 C9.17670774,17.1459375 9.14591458,17.0749524 9.0920797,17.0235222 C9.03824481,16.972092 8.96592764,16.9445725 8.89152101,16.9472017 L8.89152101,16.9472017 Z" id="Path"></path>
                        <path d="M10.7816218,5.19226891 C10.7814455,3.88916688 9.7249452,2.83292869 8.42184316,2.83307565 C7.11874113,2.83322261 6.06247911,3.88969908 6.06259667,5.19280111 C6.06271423,6.49590315 7.11916687,7.55218901 8.42226891,7.55210084 C9.72483382,7.55051677 10.7803022,6.49483412 10.7816218,5.19226891 L10.7816218,5.19226891 Z M6.62157983,5.19226891 C6.62175618,4.19781738 7.42803022,3.39178161 8.42248175,3.39189917 C9.41693329,3.39201674 10.2230167,4.19824312 10.222958,5.19269466 C10.2228992,6.1871462 9.41672045,6.99327731 8.42226891,6.99327731 C7.428089,6.992221 6.62245986,6.18644898 6.62157983,5.19226891 Z" id="Shape"></path>
                    </g>
                </g>
            </g>
        </g>
    </g>
</svg>