<svg xmlns="http://www.w3.org/2000/svg" width="12.026" height="15.536" viewBox="0 0 12.026 15.536"><defs><style>.p{fill:#fff;}</style></defs><path class="p" d="M10.467,1.592A5.819,5.819,0,0,0,6.362,0,6.4,6.4,0,0,0,1.6,1.863,5.546,5.546,0,0,0,0,5.678a3.59,3.59,0,0,0,1.905,3.55.623.623,0,0,0,.24.05.535.535,0,0,0,.52-.435c.04-.154.134-.533.174-.7a.662.662,0,0,0-.173-.709,2.28,2.28,0,0,1-.506-1.543A3.855,3.855,0,0,1,6.127,1.985c2.044,0,3.313,1.179,3.313,3.078a6.475,6.475,0,0,1-.716,3.124A2.119,2.119,0,0,1,6.973,9.43,1.154,1.154,0,0,1,6.05,9a1.091,1.091,0,0,1-.186-.936c.091-.392.215-.8.336-1.195a7.491,7.491,0,0,0,.427-1.946,1.4,1.4,0,0,0-1.4-1.554c-1.064,0-1.9,1.1-1.9,2.5a3.765,3.765,0,0,0,.261,1.4c-.134.577-.931,4.006-1.082,4.653-.087.378-.614,3.359.258,3.6.979.267,1.854-2.637,1.943-2.965.072-.267.325-1.276.48-1.9a2.936,2.936,0,0,0,1.974.775,4.381,4.381,0,0,0,3.535-1.8,7.286,7.286,0,0,0,1.329-4.408A5.12,5.12,0,0,0,10.467,1.592Z"/></svg>