<svg xmlns="http://www.w3.org/2000/svg" width="15.583" height="12.75" viewBox="0 0 15.583 12.75"><defs><style>.t{fill:#fff;}</style></defs><path class="t" d="M15.583,1.509a6.345,6.345,0,0,1-1.836.506A3.224,3.224,0,0,0,15.153.235a6.374,6.374,0,0,1-2.03.781,3.195,3.195,0,0,0-5.531,2.2,3.234,3.234,0,0,0,.083.734A9.056,9.056,0,0,1,1.085.589a3.237,3.237,0,0,0,.989,4.3,3.158,3.158,0,0,1-1.448-.4c0,.014,0,.027,0,.041A3.215,3.215,0,0,0,3.19,7.68a3.189,3.189,0,0,1-1.444.056A3.2,3.2,0,0,0,4.733,9.971,6.387,6.387,0,0,1,.762,11.349,6.4,6.4,0,0,1,0,11.3,9,9,0,0,0,4.9,12.75,9.067,9.067,0,0,0,14,3.592c0-.139,0-.278-.009-.416a6.508,6.508,0,0,0,1.6-1.666Z"/></svg>