<?xml version="1.0" encoding="UTF-8"?>
<svg width="70px" height="70px" viewBox="0 0 70 70" version="1.1" xmlns="http://www.w3.org/2000/svg" xmlns:xlink="http://www.w3.org/1999/xlink">
    <title>Group 5</title>
    <g id="Technology" stroke="none" stroke-width="1" fill="none" fill-rule="evenodd">
        <g id="Technology----Driver-app-wallet-Copy" transform="translate(-1183.000000, -1974.000000)">
            <g id="Group-5" transform="translate(1183.000000, 1974.000000)">
                <circle id="Oval" fill="#DBDBDB" opacity="0.400000006" transform="translate(34.533334, 34.533334) scale(-1, 1) translate(-34.533334, -34.533334) " cx="34.5333338" cy="34.5333338" r="34.5333338"></circle>
                <path d="M41.2966043,34.1824401 L29.9130361,22.280872 C29.7879424,22.1359531 29.5931182,22.0718444 29.4064124,22.1141628 C29.2197065,22.1564811 29.0715634,22.2983261 29.0211787,22.4830186 C28.9707941,22.6677111 29.0263837,22.865135 29.1657348,22.9964026 L40.2067323,34.5402055 L29.1657348,46.0840083 C28.985581,46.2927133 29.0004725,46.6059594 29.1996124,46.7966331 C29.3987523,46.9873068 29.7123496,46.9885841 29.9130361,46.7995389 L41.2966043,34.8979708 C41.4877993,34.6977771 41.4877993,34.3826338 41.2966043,34.1824401 Z" id="Path_141" stroke="#292A2D" stroke-width="1.10506668" fill="#292A2D" fill-rule="nonzero" transform="translate(35.221451, 34.520909) scale(-1, 1) rotate(180.000000) translate(-35.221451, -34.520909) "></path>
            </g>
        </g>
    </g>
</svg>