<?xml version="1.0" encoding="UTF-8"?>
<svg width="12px" height="8px" viewBox="0 0 12 8" version="1.1" xmlns="http://www.w3.org/2000/svg" xmlns:xlink="http://www.w3.org/1999/xlink">
    <title>C4B713D5-FCE0-46AE-AA40-91582AE7B11C</title>
    <g id="Technology" stroke="none" stroke-width="1" fill="none" fill-rule="evenodd">
        <g id="Technology---2/3-Smart-Battery" transform="translate(-1214.000000, -1632.000000)" fill="#292A2D" fill-rule="nonzero" stroke="#AEAFB0" stroke-width="1.5">
            <g id="Group-8" transform="translate(0.000000, 1362.000000)">
                <g id="Group-4" transform="translate(649.000000, 244.000000)">
                    <g id="Group-10">
                        <path d="M573.930822,29.8637356 L568.439074,25.0722804 C568.378725,25.0139374 568.284736,24.9881279 568.194664,25.0051649 C568.104592,25.0222019 568.033124,25.0793073 568.008817,25.1536627 C567.98451,25.2280181 568.011328,25.307499 568.078555,25.3603461 L573.405037,30.0077685 L568.078555,34.6551908 C567.991644,34.7392135 567.998828,34.8653233 568.094898,34.9420867 C568.190969,35.01885 568.342257,35.0193643 568.439074,34.9432565 L573.930822,30.1518013 C574.023059,30.0712053 574.023059,29.9443316 573.930822,29.8637356 Z" id="Path_141" transform="translate(571.000000, 30.000000) scale(1, -1) rotate(90.000000) translate(-571.000000, -30.000000) "></path>
                    </g>
                </g>
            </g>
        </g>
    </g>
</svg>