<?xml version="1.0" encoding="UTF-8"?>
<svg width="67px" height="62px" viewBox="0 0 67 62" version="1.1" xmlns="http://www.w3.org/2000/svg" xmlns:xlink="http://www.w3.org/1999/xlink">
    <title>371E1CC0-7A69-47C1-A7B5-AFAB4E5BCE0A</title>
    <g id="V1" stroke="none" stroke-width="1" fill="none" fill-rule="evenodd">
        <g id="Opportunity-" transform="translate(-306.000000, -489.000000)" fill="#4FA743" fill-rule="nonzero">
            <g id="noun_Business_3307072" transform="translate(306.000000, 489.000000)">
                <path d="M63.1071429,13.2857143 L46.5,13.2857143 L46.5,9.96428571 C46.4937561,4.46375106 42.0362489,0.00624392253 36.5357143,0 L29.8928571,0 C24.3923225,0.00624392253 19.9348154,4.46375106 19.9285714,9.96428571 L19.9285714,13.2857143 L3.32142857,13.2857143 C1.48792365,13.2878116 0.0020972884,14.7736379 0,16.6071429 L0,56.4642857 C0.0034480447,59.5201469 2.47985307,61.996552 5.53571429,62 L60.8928571,62 C63.9487184,61.996552 66.4251234,59.5201469 66.4285714,56.4642857 L66.4285714,16.6071429 C66.4264741,14.7736379 64.9406478,13.2878116 63.1071429,13.2857143 Z M42.0714286,13.2857143 L42.0714286,11.0714286 L44.2857143,11.0714286 L44.2857143,13.2857143 L42.0714286,13.2857143 Z M39.8571429,13.2857143 L26.5714286,13.2857143 L26.5714286,9.96428571 C26.5735259,8.13078079 28.0593522,6.64495443 29.8928571,6.64285714 L36.5357143,6.64285714 C38.3692192,6.64495443 39.8550456,8.13078079 39.8571429,9.96428571 L39.8571429,13.2857143 Z M29.8928571,2.21428571 L36.5357143,2.21428571 C40.3861448,2.21944241 43.6506238,5.04688023 44.2053675,8.85714286 L41.960032,8.85714286 C41.4306036,6.28158875 39.1651176,4.43197977 36.5357143,4.42857143 L29.8928571,4.42857143 C27.2634538,4.43197977 24.9979678,6.28158875 24.4685394,8.85714286 L22.2232039,8.85714286 C22.7779448,5.04687871 26.0424255,2.21943944 29.8928571,2.21428571 Z M22.1428571,11.0714286 L24.3571429,11.0714286 L24.3571429,13.2857143 L22.1428571,13.2857143 L22.1428571,11.0714286 Z M64.2142857,56.4642857 C64.2121884,58.2977906 62.7263621,59.783617 60.8928571,59.7857143 L5.53571429,59.7857143 C3.70220937,59.783617 2.216383,58.2977906 2.21428571,56.4642857 L2.21428571,34.5470795 C3.10037857,36.0164061 4.22255706,37.3296565 5.53571429,38.4340491 L5.53571429,53.1428571 C5.53776363,54.976382 7.02361805,56.4622364 8.85714286,56.4642857 L57.5714286,56.4642857 C59.4049534,56.4622364 60.8908078,54.976382 60.8928571,53.1428571 L60.8928571,38.4340491 C62.2060104,37.3296503 63.3281882,36.0163988 64.2142857,34.5470795 L64.2142857,56.4642857 Z M50.9285714,39.8571429 L42.0714286,39.8571429 L42.0714286,42.0714286 L50.9285714,42.0714286 C53.6503588,42.0746804 56.3244175,41.3567434 58.6785714,39.990692 L58.6785714,53.1428571 C58.6778721,53.7540253 58.1825968,54.2493007 57.5714286,54.25 L8.85714286,54.25 C8.24597466,54.2493007 7.75069935,53.7540253 7.75,53.1428571 L7.75,39.990692 C10.1041539,41.3567434 12.7782126,42.0746804 15.5,42.0714286 L24.3571429,42.0714286 L24.3571429,39.8571429 L15.5,39.8571429 C8.16594054,39.8488496 2.22257898,33.905488 2.21428571,26.5714286 L2.21428571,16.6071429 C2.21498506,15.9959747 2.71026037,15.5006993 3.32142857,15.5 L63.1071429,15.5 C63.7183111,15.5006993 64.2135864,15.9959747 64.2142857,16.6071429 L64.2142857,26.5714286 C64.2059924,33.905488 58.2626309,39.8488496 50.9285714,39.8571429 L50.9285714,39.8571429 Z" id="Shape"></path>
                <path d="M33.2142857,23.25 C29.5472557,23.2541459 26.5755744,26.2258271 26.5714286,29.8928571 L26.5714286,48.7142857 C26.5714286,49.0079208 26.6880625,49.2895319 26.8956939,49.4971633 C27.1033253,49.7047947 27.3849363,49.8214286 27.6785714,49.8214286 L38.75,49.8214286 C39.0436351,49.8214286 39.3252462,49.7047947 39.5328775,49.4971633 C39.7405089,49.2895319 39.8571429,49.0079208 39.8571429,48.7142857 L39.8571429,29.8928571 C39.852997,26.2258271 36.8813158,23.2541459 33.2142857,23.25 Z M33.2142857,25.4642857 C35.65898,25.4670314 37.6401115,27.4481629 37.6428571,29.8928571 L37.6428571,32.1071429 L28.7857143,32.1071429 L28.7857143,29.8928571 C28.7884599,27.4481629 30.7695914,25.4670314 33.2142857,25.4642857 Z M37.6428571,34.3214286 L37.6428571,36.5357143 L28.7857143,36.5357143 L28.7857143,34.3214286 L37.6428571,34.3214286 Z M28.7857143,47.6071429 L28.7857143,38.75 L37.6428571,38.75 L37.6428571,47.6071429 L28.7857143,47.6071429 Z" id="Shape"></path>
            </g>
        </g>
    </g>
</svg>