<?xml version="1.0" encoding="UTF-8"?>
<svg width="70px" height="70px" viewBox="0 0 70 70" version="1.1" xmlns="http://www.w3.org/2000/svg" xmlns:xlink="http://www.w3.org/1999/xlink">
    <title>7FB31F52-F7DB-4E3C-8701-62F83BCBE013</title>
    <g id="V1" stroke="none" stroke-width="1" fill="none" fill-rule="evenodd">
        <g id="Opportunity-" transform="translate(-304.000000, -254.000000)" fill="#4FA743" fill-rule="nonzero">
            <g id="noun_hardware_3085393" transform="translate(304.000000, 254.000000)">
                <g id="Group">
                    <path d="M48.1808511,17.9765957 L21.8787234,17.9765957 C19.7414894,17.9765957 17.9989362,19.7117021 17.9989362,21.856383 L17.9989362,48.1585106 C17.9989362,50.2957447 19.7340426,52.0382979 21.8787234,52.0382979 L48.1808511,52.0382979 C50.3180851,52.0382979 52.0606383,50.3031915 52.0606383,48.1585106 L52.0606383,21.8489362 C52.0606383,19.7117021 50.3180851,17.9765957 48.1808511,17.9765957 Z M49.8265957,48.1510638 C49.8265957,49.0595745 49.0893617,49.7968085 48.1808511,49.7968085 L21.8787234,49.7968085 C20.9702128,49.7968085 20.2329787,49.0595745 20.2329787,48.1510638 L20.2329787,21.8489362 C20.2329787,20.9404255 20.9702128,20.2031915 21.8787234,20.2031915 L48.1808511,20.2031915 C49.0893617,20.2031915 49.8265957,20.9404255 49.8265957,21.8489362 L49.8265957,48.1510638 Z" id="Shape"></path>
                    <path d="M68.25,36.1170213 C68.8680851,36.1170213 69.3670213,35.6180851 69.3670213,35 C69.3670213,34.3819149 68.8680851,33.8829787 68.25,33.8829787 L57.0648936,33.8829787 L57.0648936,29.5787234 L68.25,29.5787234 C68.8680851,29.5787234 69.3670213,29.0797872 69.3670213,28.4617021 C69.3670213,27.843617 68.8680851,27.3446809 68.25,27.3446809 L57.0648936,27.3446809 L57.0648936,20.7095745 C57.0648936,16.4425532 53.5946809,12.9723404 49.3276596,12.9723404 L42.9234043,12.9723404 L42.9234043,1.75 C42.9234043,1.13191489 42.4244681,0.632978723 41.806383,0.632978723 C41.1882979,0.632978723 40.6893617,1.13191489 40.6893617,1.75 L40.6893617,12.9648936 L36.3851064,12.9648936 L36.3851064,1.75 C36.3851064,1.13191489 35.8861702,0.632978723 35.2680851,0.632978723 C34.65,0.632978723 34.1510638,1.13191489 34.1510638,1.75 L34.1510638,12.9648936 L29.8468085,12.9648936 L29.8468085,1.75 C29.8468085,1.13191489 29.3478723,0.632978723 28.7297872,0.632978723 C28.1117021,0.632978723 27.612766,1.13191489 27.612766,1.75 L27.612766,12.9648936 L20.7468085,12.9648936 C16.4797872,12.9648936 13.0095745,16.4351064 13.0095745,20.7021277 L13.0095745,27.337234 L1.75,27.337234 C1.13191489,27.337234 0.632978723,27.8361702 0.632978723,28.4542553 C0.632978723,29.0723404 1.13191489,29.5712766 1.75,29.5712766 L12.9946809,29.5712766 L12.9946809,33.8755319 L1.75,33.8755319 C1.13191489,33.8755319 0.632978723,34.3744681 0.632978723,34.9925532 C0.632978723,35.6106383 1.13191489,36.1095745 1.75,36.1095745 L12.9946809,36.1095745 L12.9946809,40.4138298 L1.75,40.4138298 C1.13191489,40.4138298 0.632978723,40.912766 0.632978723,41.5308511 C0.632978723,42.1489362 1.13191489,42.6478723 1.75,42.6478723 L12.9946809,42.6478723 L12.9946809,49.2829787 C12.9946809,53.55 16.4648936,57.0202128 20.7319149,57.0202128 L27.5978723,57.0202128 L27.5978723,68.2351064 C27.5978723,68.8531915 28.0968085,69.3521277 28.7148936,69.3521277 C29.3329787,69.3521277 29.8319149,68.8531915 29.8319149,68.2351064 L29.8319149,57.0351064 L34.1361702,57.0351064 L34.1361702,68.25 C34.1361702,68.8680851 34.6351064,69.3670213 35.2531915,69.3670213 C35.8712766,69.3670213 36.3702128,68.8680851 36.3702128,68.25 L36.3702128,57.0351064 L40.6744681,57.0351064 L40.6744681,68.25 C40.6744681,68.8680851 41.1734043,69.3670213 41.7914894,69.3670213 C42.4095745,69.3670213 42.9085106,68.8680851 42.9085106,68.25 L42.9085106,57.0351064 L49.312766,57.0351064 C53.5797872,57.0351064 57.05,53.5648936 57.05,49.2978723 L57.05,42.662766 L68.2351064,42.662766 C68.8531915,42.662766 69.3521277,42.1638298 69.3521277,41.5457447 C69.3521277,40.9276596 68.8531915,40.4287234 68.2351064,40.4287234 L57.0648936,40.4287234 L57.0648936,36.1170213 L68.25,36.1170213 Z M49.3276596,54.8010638 L20.7393617,54.8010638 C17.7010638,54.8010638 15.2361702,52.3287234 15.2361702,49.2978723 L15.2361702,20.7095745 C15.2361702,17.6712766 17.7085106,15.206383 20.7393617,15.206383 L49.3202128,15.206383 C52.3585106,15.206383 54.823421,17.6787234 54.823421,20.7095745 L54.823421,28.2085106 C54.8010638,28.2904255 54.793617,28.3723404 54.793617,28.4617021 C54.793617,28.5510638 54.8085106,28.6329787 54.823421,28.7148936 L54.823421,34.7468085 C54.8010638,34.8287234 54.793617,34.9106383 54.793617,35 C54.793617,35.0893617 54.8085106,35.1712766 54.823421,35.2531915 L54.823421,41.2851064 C54.8010638,41.3670213 54.793617,41.4489362 54.793617,41.5382979 C54.793617,41.6276596 54.8085106,41.7095745 54.823421,41.7914894 L54.823421,49.2904255 C54.8308511,52.3287234 52.3585106,54.8010638 49.3276596,54.8010638 Z" id="Shape"></path>
                </g>
            </g>
        </g>
    </g>
</svg>