<?xml version="1.0" encoding="UTF-8"?>
<svg width="64px" height="64px" viewBox="0 0 64 64" version="1.1" xmlns="http://www.w3.org/2000/svg" xmlns:xlink="http://www.w3.org/1999/xlink">
    <title>3A293869-FFCE-47C6-8066-012EB1E56475</title>
    <g id="V1" stroke="none" stroke-width="1" fill="none" fill-rule="evenodd">
        <g id="Opportunity-" transform="translate(-1049.000000, -485.000000)" fill="#4FA743" fill-rule="nonzero">
            <g id="noun_Human-Resource_1762467" transform="translate(1049.000000, 485.000000)">
                <g id="Group">
                    <path d="M59.088,50.7346667 C57.1321554,50.0859675 55.211343,49.3360674 53.3333333,48.488 L53.3333333,48.4253333 C56.5856251,46.8786868 58.6602387,43.6013158 58.6666667,40 L58.6666667,36 C58.67466,32.934013 57.1724908,30.0606783 54.6502714,28.3174775 C52.1280519,26.5742767 48.9092266,26.1847545 46.044,27.276 C45.0760792,25.698396 43.5414884,24.5506728 41.7546667,24.068 C39.7988221,23.4193009 37.8780097,22.6694008 36,21.8213333 L36,21.7586667 C39.2522917,20.2120201 41.3269054,16.9346492 41.3333333,13.3333333 L41.3333333,9.33333333 C41.3333333,4.17867567 37.1546577,-2.07241631e-15 32,-2.07241631e-15 C26.8453423,-2.07241631e-15 22.6666667,4.17867567 22.6666667,9.33333333 L22.6666667,13.3333333 C22.6730946,16.9346492 24.7477083,20.2120201 28,21.7586667 L28,21.8213333 C26.1219903,22.6694008 24.2011779,23.4193009 22.2453333,24.068 C20.4585116,24.5506728 18.9239208,25.698396 17.956,27.276 C15.0907734,26.1847545 11.8719481,26.5742767 9.34972862,28.3174775 C6.82750915,30.0606783 5.32534005,32.934013 5.33333333,36 L5.33333333,40 C5.33976127,43.6013158 7.41437493,46.8786868 10.6666667,48.4253333 L10.6666667,48.488 C8.78865698,49.3360674 6.86784461,50.0859675 4.912,50.7346667 C0.056,52.3533333 0,55.852 0,56 L0,64 L2.66666667,64 L2.66666667,56.036 C2.66666667,55.964 2.8,54.2493333 5.756,53.2653333 C8.0925271,52.5031165 10.377298,51.5905443 12.596,50.5333333 C13.0502258,50.3063654 13.3361051,49.8411008 13.3333333,49.3333333 L13.3333333,47.5346667 C13.3335745,46.9697598 12.9777994,46.4660122 12.4453333,46.2773333 C9.78563766,45.3348819 8.00593328,42.8217301 8,40 L8,36 C8,32.3181017 10.9847683,29.3333333 14.6666667,29.3333333 C18.348565,29.3333333 21.3333333,32.3181017 21.3333333,36 L21.3333333,40 C21.3274001,42.8217301 19.5476957,45.3348819 16.888,46.2773333 C16.355534,46.4660122 15.9997588,46.9697598 16,47.5346667 L16,49.3333333 C15.9972283,49.8411008 16.2831075,50.3063654 16.7373333,50.5333333 C18.9563033,51.5928665 21.2415244,52.5076675 23.5786667,53.272 C26.5333333,54.2493333 26.6666667,55.964 26.6666667,56 L26.6666667,64 L29.3333333,64 L29.3333333,56 C29.3333333,55.852 29.2773333,52.3533333 24.4213333,50.7346667 C22.4654887,50.0859675 20.5446764,49.3360674 18.6666667,48.488 L18.6666667,48.4253333 C21.9189584,46.8786868 23.9935721,43.6013158 24,40 L24,36 C23.9970816,33.0785071 22.6238396,30.3275806 20.2906667,28.5693333 C20.944444,27.5851388 21.943575,26.8819409 23.0906667,26.5986667 C25.4267407,25.8363959 27.7110646,24.9238243 29.9293333,23.8666667 C30.3835591,23.6396988 30.6694384,23.1744342 30.6666667,22.6666667 L30.6666667,20.868 C30.6669078,20.3030932 30.3111327,19.7993455 29.7786667,19.6106667 C27.118971,18.6682152 25.3392666,16.1550634 25.3333333,13.3333333 L25.3333333,9.33333333 C25.3333333,5.651435 28.3181017,2.66666667 32,2.66666667 C35.6818983,2.66666667 38.6666667,5.651435 38.6666667,9.33333333 L38.6666667,13.3333333 C38.6607334,16.1550634 36.881029,18.6682152 34.2213333,19.6106667 C33.6888673,19.7993455 33.3330922,20.3030932 33.3333333,20.868 L33.3333333,22.6666667 C33.3330978,23.1720346 33.6185978,23.6341006 34.0706667,23.86 C36.2896366,24.9195331 38.5748577,25.8343342 40.912,26.5986667 C42.0590917,26.8819409 43.0582227,27.5851388 43.712,28.5693333 C41.3778226,30.3270253 40.0035495,33.0780396 40,36 L40,40 C40.0064279,43.6013158 42.0810416,46.8786868 45.3333333,48.4253333 L45.3333333,48.488 C43.4553236,49.3360674 41.5345113,50.0859675 39.5786667,50.7346667 C34.7226667,52.3533333 34.6666667,55.852 34.6666667,56 L34.6666667,64 L37.3333333,64 L37.3333333,56.036 C37.3333333,55.964 37.4666667,54.2493333 40.4226667,53.2653333 C42.7591938,52.5031165 45.0439647,51.5905443 47.2626667,50.5333333 C47.7168925,50.3063654 48.0027717,49.8411008 48,49.3333333 L48,47.5346667 C48.0002412,46.9697598 47.644466,46.4660122 47.112,46.2773333 C44.4523043,45.3348819 42.6725999,42.8217301 42.6666667,40 L42.6666667,36 C42.6666667,32.3181017 45.651435,29.3333333 49.3333333,29.3333333 C53.0152317,29.3333333 56,32.3181017 56,36 L56,40 C55.9940667,42.8217301 54.2143623,45.3348819 51.5546667,46.2773333 C51.0222006,46.4660122 50.6664255,46.9697598 50.6666667,47.5346667 L50.6666667,49.3333333 C50.6638949,49.8411008 50.9497742,50.3063654 51.404,50.5333333 C53.62297,51.5928665 55.9081911,52.5076675 58.2453333,53.272 C61.2,54.2493333 61.3333333,55.964 61.3333333,56 L61.3333333,64 L64,64 L64,56 C64,55.852 63.944,52.3533333 59.088,50.7346667 Z" id="Path"></path>
                    <rect id="Rectangle" x="30.6666667" y="36" width="2.66666667" height="2.66666667"></rect>
                    <rect id="Rectangle" x="30.6666667" y="30.6666667" width="2.66666667" height="2.66666667"></rect>
                    <rect id="Rectangle" x="30.6666667" y="41.3333333" width="2.66666667" height="2.66666667"></rect>
                    <rect id="Rectangle" x="41.3333333" y="57.3333333" width="2.66666667" height="6.66666667"></rect>
                    <rect id="Rectangle" x="54.6666667" y="57.3333333" width="2.66666667" height="6.66666667"></rect>
                    <rect id="Rectangle" x="20" y="57.3333333" width="2.66666667" height="6.66666667"></rect>
                    <rect id="Rectangle" x="6.66666667" y="57.3333333" width="2.66666667" height="6.66666667"></rect>
                </g>
            </g>
        </g>
    </g>
</svg>