<?xml version="1.0" encoding="UTF-8"?>
<svg width="62px" height="62px" viewBox="0 0 62 62" version="1.1" xmlns="http://www.w3.org/2000/svg" xmlns:xlink="http://www.w3.org/1999/xlink">
    <title>6BA432E6-68B0-4C0B-B432-3F11FFEE4B5F</title>
    <g id="V1" stroke="none" stroke-width="1" fill="none" fill-rule="evenodd">
        <g id="Opportunity-" transform="translate(-690.000000, -489.000000)" fill="#4FA743" fill-rule="nonzero">
            <g id="noun_Network_824057" transform="translate(690.000000, 489.000000)">
                <path d="M56.8333333,25.8872651 C54.5083333,25.8872651 52.4416667,27.5699374 51.925,29.7703549 L39.7833333,29.7703549 C39.525,28.217119 39.0083333,26.9227557 38.1041667,25.7578288 L46.6291667,17.2150313 C48.825,18.3799582 50.8916667,18.1210856 52.8291667,16.4384134 C54.7666667,14.4968685 54.7666667,11.131524 52.8291667,9.18997912 C50.8916667,7.24843424 47.5333333,7.24843424 45.5958333,9.18997912 C43.9166667,10.8726514 43.6583333,13.4613779 44.8208333,15.4029228 L36.2958333,23.9457203 C35.1333333,23.039666 33.7125,22.5219207 32.2916667,22.263048 L32.2916667,10.0960334 C34.4875,9.5782881 36.1666667,7.50730689 36.1666667,5.17745303 C36.1666667,2.32985386 33.8416667,0 31,0 C28.1583333,0 25.8333333,2.32985386 25.8333333,5.17745303 C25.8333333,7.50730689 27.5125,9.5782881 29.7083333,10.0960334 L29.7083333,22.263048 C28.1583333,22.5219207 26.8666667,23.039666 25.7041667,23.9457203 L17.1791667,15.4029228 C18.3416667,13.4613779 18.0833333,10.8726514 16.4041667,9.18997912 C14.3375,7.11899791 10.9791667,7.11899791 9.04166667,9.0605428 C7.10416667,11.0020877 7.10416667,14.3674322 9.04166667,16.308977 C10.5916667,17.8622129 12.9166667,18.2505219 15.2416667,17.085595 L23.7666667,25.6283925 C22.8625,26.7933194 22.3458333,28.217119 22.0875,29.6409186 L10.075,29.6409186 C9.55833333,27.440501 7.49166667,25.7578288 5.16666667,25.7578288 C2.325,25.7578288 0,28.0876827 0,30.9352818 C0,33.782881 2.325,36.1127349 5.16666667,36.1127349 C7.49166667,36.1127349 9.55833333,34.4300626 10.075,32.2296451 L22.2166667,32.2296451 C22.475,33.782881 22.9916667,35.0772443 23.8958333,36.2421712 L15.3708333,44.7849687 C13.4333333,43.6200418 10.85,43.8789144 9.17083333,45.5615866 C7.23333333,47.5031315 7.23333333,50.868476 9.17083333,52.8100209 C10.075,53.7160752 11.3666667,54.3632568 12.7875,54.3632568 C14.2083333,54.3632568 15.5,53.8455115 16.4041667,52.8100209 C18.0833333,51.1273486 18.3416667,48.5386221 17.1791667,46.5970772 L25.7041667,38.0542797 C26.8666667,38.960334 28.2875,39.4780793 29.7083333,39.736952 L29.7083333,51.9039666 C27.5125,52.4217119 25.8333333,54.4926931 25.8333333,56.822547 C25.8333333,59.6701461 28.1583333,62 31,62 C33.8416667,62 36.1666667,59.6701461 36.1666667,56.822547 C36.1666667,54.4926931 34.4875,52.4217119 32.2916667,51.9039666 L32.2916667,39.8663883 C33.8416667,39.6075157 35.1333333,39.0897704 36.2958333,38.1837161 L44.8208333,46.7265136 C43.6583333,48.6680585 43.9166667,51.256785 45.5958333,52.9394572 C46.5,53.8455115 47.7916667,54.4926931 49.2125,54.4926931 C50.6333333,54.4926931 51.925,53.9749478 52.8291667,52.9394572 C54.7666667,50.9979123 54.7666667,47.6325678 52.8291667,45.691023 C51.15,44.0083507 48.5666667,43.8789144 46.6291667,44.914405 L38.1041667,36.3716075 C39.0083333,35.2066806 39.525,33.782881 39.7833333,32.3590814 L51.925,32.3590814 C52.4416667,34.559499 54.5083333,36.2421712 56.8333333,36.2421712 C59.675,36.2421712 62,33.9123173 62,31.0647182 C62,28.217119 59.675,25.8872651 56.8333333,25.8872651 Z M47.5333333,10.8726514 C48.825,9.83716075 49.9875,9.96659708 51.15,10.8726514 C52.1833333,11.908142 52.1833333,13.4613779 51.15,14.4968685 C50.2458333,15.4029228 48.5666667,15.4029228 47.5333333,14.4968685 L47.5333333,14.4968685 C47.5333333,14.4968685 47.5333333,14.4968685 47.5333333,14.4968685 C46.5,13.5908142 46.5,11.908142 47.5333333,10.8726514 Z M14.4666667,14.4968685 C13.5625,15.4029228 11.8833333,15.4029228 10.85,14.4968685 C9.81666667,13.4613779 9.81666667,11.908142 10.85,10.8726514 C12.0125,9.83716075 13.3041667,9.83716075 14.4666667,10.8726514 C15.5,11.908142 15.5,13.5908142 14.4666667,14.4968685 Z M7.62083333,31.0647182 C7.62083333,32.4885177 6.45833333,33.6534447 5.0375,33.6534447 C3.61666667,33.6534447 2.45416667,32.4885177 2.45416667,31.0647182 C2.45416667,29.6409186 3.61666667,28.4759916 5.0375,28.4759916 C6.5875,28.4759916 7.62083333,29.6409186 7.62083333,31.0647182 C7.62083333,31.0647182 7.62083333,31.0647182 7.62083333,31.0647182 C7.62083333,31.0647182 7.62083333,31.0647182 7.62083333,31.0647182 Z M14.4666667,51.256785 C13.5625,52.1628392 11.8833333,52.1628392 10.85,51.256785 C9.81666667,50.2212944 9.81666667,48.6680585 10.85,47.6325678 C12.1416667,46.5970772 13.3041667,46.7265136 14.4666667,47.6325678 C14.4666667,47.6325678 14.4666667,47.6325678 14.4666667,47.6325678 C14.4666667,47.6325678 14.4666667,47.6325678 14.4666667,47.6325678 C15.5,48.6680585 15.5,50.2212944 14.4666667,51.256785 Z M28.4166667,5.17745303 C28.4166667,3.75365344 29.5791667,2.58872651 31,2.58872651 C32.4208333,2.58872651 33.5833333,3.75365344 33.5833333,5.17745303 C33.5833333,6.60125261 32.4208333,7.76617954 31,7.76617954 C29.5791667,7.76617954 28.4166667,6.60125261 28.4166667,5.17745303 Z M33.5833333,56.9519833 C33.5833333,58.3757829 32.4208333,59.5407098 31,59.5407098 C29.5791667,59.5407098 28.4166667,58.3757829 28.4166667,56.9519833 C28.4166667,55.5281837 29.5791667,54.3632568 31,54.3632568 C32.4208333,54.3632568 33.5833333,55.5281837 33.5833333,56.9519833 Z M31,37.4070981 C31,37.4070981 31,37.4070981 31,37.4070981 C31,37.4070981 31,37.4070981 31,37.4070981 C26.9958333,37.0187891 24.9291667,34.6889353 24.6708333,31.0647182 C25.0583333,27.3110647 27.125,25.1106472 31,24.7223382 C34.4875,24.7223382 37.3291667,27.5699374 37.3291667,31.0647182 C37.3291667,31.0647182 37.3291667,31.0647182 37.3291667,31.0647182 C37.3291667,31.0647182 37.3291667,31.0647182 37.3291667,31.0647182 C37.3291667,34.559499 34.4875,37.4070981 31,37.4070981 Z M47.5333333,47.6325678 C47.5333333,47.6325678 47.5333333,47.6325678 47.5333333,47.6325678 C47.5333333,47.6325678 47.5333333,47.6325678 47.5333333,47.6325678 C48.6958333,46.5970772 49.9875,46.5970772 51.15,47.6325678 C52.1833333,48.6680585 52.1833333,50.2212944 51.15,51.256785 C50.2458333,52.1628392 48.5666667,52.1628392 47.5333333,51.256785 C46.5,50.2212944 46.5,48.6680585 47.5333333,47.6325678 Z M56.8333333,33.6534447 C55.4125,33.6534447 54.25,32.4885177 54.25,31.0647182 C54.25,29.6409186 55.4125,28.4759916 56.8333333,28.4759916 C58.2541667,28.4759916 59.4166667,29.6409186 59.4166667,31.0647182 C59.4166667,32.4885177 58.2541667,33.6534447 56.8333333,33.6534447 Z" id="Shape"></path>
            </g>
        </g>
    </g>
</svg>