<?xml version="1.0" encoding="UTF-8"?>
<svg width="65px" height="54px" viewBox="0 0 65 54" version="1.1" xmlns="http://www.w3.org/2000/svg" xmlns:xlink="http://www.w3.org/1999/xlink">
    <title>33C83CFA-AC34-4802-B279-97DC75A9AE8F</title>
    <g id="V1" stroke="none" stroke-width="1" fill="none" fill-rule="evenodd">
        <g id="Opportunity-" transform="translate(-688.000000, -255.000000)" fill="#4FA743" fill-rule="nonzero" stroke="#FFFFFF" stroke-width="0.6">
            <g id="noun_Software_375626" transform="translate(688.000000, 256.000000)">
                <path d="M5.26842105,51.7263158 L58.9789474,51.7263158 C61.7157895,51.7263158 63.9052632,49.5368421 63.9052632,46.8 L63.9052632,5.13157895 C63.9052632,2.39473684 61.7157895,0.205263158 58.9789474,0.205263158 L5.26842105,0.205263158 C2.53157895,0.205263158 0.342105263,2.39473684 0.342105263,5.13157895 L0.342105263,46.8 C0.410526316,49.5368421 2.6,51.7263158 5.26842105,51.7263158 Z M59.0473684,48.3052632 L5.26842105,48.3052632 C4.44736842,48.3052632 3.76315789,47.6210526 3.76315789,46.8 L3.76315789,15.6684211 L60.4842105,15.6684211 L60.4842105,46.8 C60.4842105,47.6894737 59.8684211,48.3052632 59.0473684,48.3052632 Z M5.26842105,3.69473684 L58.9789474,3.69473684 C59.8,3.69473684 60.4842105,4.37894737 60.4842105,5.2 L60.4842105,12.3157895 L3.83157895,12.3157895 L3.83157895,5.13157895 C3.83157895,4.31052632 4.44736842,3.69473684 5.26842105,3.69473684 Z M12.9315789,7.93684211 C12.9315789,6.77368421 13.8894737,5.88421053 14.9842105,5.88421053 C16.0789474,5.88421053 17.0368421,6.84210526 17.0368421,7.93684211 C17.0368421,9.1 16.0789474,9.98947368 14.9842105,9.98947368 C13.8894737,9.98947368 12.9315789,9.1 12.9315789,7.93684211 Z M19.7736842,7.93684211 C19.7736842,6.77368421 20.7315789,5.88421053 21.8263158,5.88421053 C22.9210526,5.88421053 23.8789474,6.84210526 23.8789474,7.93684211 C23.8789474,9.1 22.9210526,9.98947368 21.8263158,9.98947368 C20.7315789,9.98947368 19.7736842,9.1 19.7736842,7.93684211 Z M6.08947368,7.93684211 C6.08947368,6.77368421 7.04736842,5.88421053 8.14210526,5.88421053 C9.30526316,5.88421053 10.1947368,6.84210526 10.1947368,7.93684211 C10.1947368,9.1 9.23684211,9.98947368 8.14210526,9.98947368 C7.04736842,10.0578947 6.08947368,9.1 6.08947368,7.93684211 Z M56.3789474,42.9 C56.3789474,43.8578947 55.6263158,44.6105263 54.6684211,44.6105263 L9.64736842,44.6105263 C8.68947368,44.6105263 7.93684211,43.8578947 7.93684211,42.9 C7.93684211,41.9421053 8.68947368,41.1894737 9.64736842,41.1894737 L54.6684211,41.1894737 C55.6263158,41.1894737 56.3789474,42.0105263 56.3789474,42.9 Z M56.3789474,35.7157895 C56.3789474,36.6736842 55.6263158,37.4263158 54.6684211,37.4263158 L21.4842105,37.4263158 C20.5263158,37.4263158 19.7736842,36.6736842 19.7736842,35.7157895 C19.7736842,34.7578947 20.5263158,34.0052632 21.4842105,34.0052632 L54.6684211,34.0052632 C55.6263158,34.0052632 56.3789474,34.7578947 56.3789474,35.7157895 Z M56.3789474,28.5315789 C56.3789474,29.4894737 55.6263158,30.2421053 54.6684211,30.2421053 L9.64736842,30.2421053 C8.68947368,30.2421053 7.93684211,29.4894737 7.93684211,28.5315789 C7.93684211,27.5736842 8.68947368,26.8210526 9.64736842,26.8210526 L54.6684211,26.8210526 C55.6263158,26.8210526 56.3789474,27.5736842 56.3789474,28.5315789 Z M56.3789474,21.2789474 C56.3789474,22.2368421 55.6263158,22.9894737 54.6684211,22.9894737 L32.1578947,22.9894737 C31.2,22.9894737 30.4473684,22.2368421 30.4473684,21.2789474 C30.4473684,20.3210526 31.2,19.5684211 32.1578947,19.5684211 L54.6684211,19.5684211 C55.6263158,19.5684211 56.3789474,20.3210526 56.3789474,21.2789474 Z" id="Shape"></path>
            </g>
        </g>
    </g>
</svg>