<?xml version="1.0" encoding="UTF-8"?>
<svg width="52px" height="64px" viewBox="0 0 52 64" version="1.1" xmlns="http://www.w3.org/2000/svg" xmlns:xlink="http://www.w3.org/1999/xlink">
    <title>4CE4B079-310D-4CDE-A842-DFA3F2022153</title>
    <g id="V1" stroke="none" stroke-width="1" fill="none" fill-rule="evenodd">
        <g id="Opportunity-" transform="translate(-1055.000000, -254.000000)" fill-rule="nonzero">
            <g id="noun_strategy_2800479" transform="translate(1056.000000, 254.000000)">
                <g id="Group">
                    <path d="M16.8214286,60.3249778 C16.8749227,59.1306116 16.8352292,56.9389156 16.7187007,54.8832178 C16.6208239,53.1557564 16.4717936,51.5506489 16.2836543,50.7702578 C15.3031989,46.7045511 13.15694,43.3084622 11.0746186,40.0135467 C8.32199357,35.6580267 5.67563643,31.4706133 5.67563643,25.9702578 C5.67563643,20.5870933 7.86565429,15.7114667 11.4076186,12.1777956 C14.94944,8.64426667 19.8446543,6.45443556 25.2543329,6.44318222 L25.2856321,6.44318222 C30.6823643,6.46336768 35.5747393,8.6510491 39.1143107,12.1767558 C42.6529179,15.7015024 44.8405429,20.5655024 44.829336,25.9393513 L44.829336,25.9702735 C44.8090173,31.3405846 42.1513373,35.5854023 39.3974623,39.984069 C37.2974087,43.3382557 35.1386766,46.7862735 34.1759266,50.7939001 C33.9838998,51.5933757 33.8358319,53.2418646 33.7446623,55.0002112 C33.6379553,57.0576157 33.6140873,59.2341846 33.6906409,60.3789312 L32.7203998,60.4433092 L33.6922641,60.3788822 C33.7279784,60.9132164 33.3218337,61.3753053 32.7851069,61.4108537 C32.7633971,61.4122885 32.741828,61.4130024 32.7203994,61.4130024 L32.7203994,61.4130024 L32.7101421,61.4130024 L17.7882136,61.4130024 C17.2502921,61.4130024 16.8141832,60.9788336 16.8141832,60.4433082 C16.8141832,60.4032663 16.816679,60.3638051 16.8214245,60.3250021 L16.8214286,60.3249778 Z M18.6591786,54.7771911 C18.7530341,56.4332676 18.7976136,58.1882133 18.785198,59.4735822 L31.7099837,59.4735822 C31.6861157,58.2224249 31.7201004,56.5230578 31.8041766,54.9016889 C31.900092,53.0510044 32.0649409,51.2785956 32.2887445,50.3469156 C33.3291123,46.0163911 35.5680837,42.4402133 37.7462266,38.96128 C40.3539945,34.7960178 42.8706909,30.7764089 42.8888641,25.97024 L42.8888641,25.9393179 C42.8989839,21.0999934 40.9268786,16.717789 37.7369857,13.5404023 C34.5480929,10.364029 30.1428786,8.3931312 25.2856465,8.37499577 L25.2543472,8.37499577 C20.3843115,8.3851585 15.9759365,10.3580002 12.78499,13.5414491 C9.5956686,16.7232624 7.62370432,21.1166313 7.62370432,25.9702313 C7.62370432,30.9219291 10.1208472,34.873218 12.7183115,38.9832091 C14.8825436,42.4076891 17.1131686,45.9373069 18.1708472,50.3232802 C18.3906793,51.2350011 18.5562865,52.9600269 18.6592043,54.7771647 L18.6591786,54.7771911 Z" id="Shape" stroke="#4FA743" stroke-width="0.4" fill="#4FA743"></path>
                    <polygon id="Path" fill="#000000" points="17.6726786 53.3344 33.3396429 53.3344 33.3396429 55.2737778 17.6726786 55.2737778"></polygon>
                    <polygon id="Path" stroke="#4FA743" stroke-width="0.4" fill="#4FA743" points="17.0276786 53.3344 32.2023214 53.3344 32.2023214 55.2737778 17.0276786 55.2737778"></polygon>
                    <path d="M26.2182143,1.93932444 C26.2182143,1.40380089 25.7821071,0.969630222 25.2441839,0.969630222 C24.7062696,0.969630222 24.2701607,1.40379911 24.2701607,1.93932444 L24.2701607,4.07342222 C24.2701607,4.60894578 24.7062679,5.04311644 25.2441839,5.04311644 C25.7821054,5.04311644 26.2182143,4.60894756 26.2182143,4.07342222 L26.2182143,1.93932444 Z" id="Path" stroke="#4FA743" stroke-width="0.4" fill="#4FA743"></path>
                    <path d="M38.0641071,5.74631111 C38.3309589,5.28399111 38.1708634,4.69376889 37.7064714,4.42810311 C37.2420804,4.16244444 36.6492304,4.32182844 36.3823786,4.78415644 L35.3106125,6.63231644 C35.0437679,7.09463644 35.2038634,7.68485156 35.6682554,7.95051733 C36.1326464,8.21618311 36.7254964,8.056792 36.9923482,7.59447111 L38.0641071,5.74631111 Z" id="Path" stroke="#4FA743" stroke-width="0.4" fill="#4FA743"></path>
                    <path d="M46.4141071,14.9454222 C46.8784982,14.6776569 47.0369214,14.0857689 46.7679589,13.6234418 C46.4989982,13.1611218 45.9044679,13.0034027 45.4400839,13.271168 L43.5836732,14.3382133 C43.1192821,14.6059787 42.9608589,15.1978667 43.2298214,15.6601867 C43.4987821,16.1225138 44.0933125,16.2802329 44.5576964,16.0124658 L46.4141071,14.9454204 L46.4141071,14.9454222 Z" id="Path" stroke="#4FA743" stroke-width="0.4" fill="#4FA743"></path>
                    <path d="M49.0235714,27.0689778 C49.5614857,27.0689778 49.9975946,26.6348089 49.9975946,26.0992764 C49.9975946,25.5637529 49.5614875,25.1295822 49.0235714,25.1295822 L46.8799821,25.1295822 C46.3420679,25.1295822 45.9059589,25.5637511 45.9059589,26.0992764 C45.9059589,26.6348071 46.3420661,27.0689778 46.8799821,27.0689778 L49.0235714,27.0689778 Z" id="Path" stroke="#4FA743" stroke-width="0.4" fill="#4FA743"></path>
                    <path d="M0.976428571,24.6432 C0.438514286,24.6432 0.00240535714,25.0773689 0.00240535714,25.6128942 C0.00240535714,26.1484249 0.4385125,26.5825956 0.976428571,26.5825956 L3.12001786,26.5825956 C3.65793214,26.5825956 4.09404107,26.1484267 4.09404107,25.6128942 C4.09404107,25.0773707 3.65793393,24.6432 3.12001786,24.6432 L0.976428571,24.6432 Z" id="Path" stroke="#4FA743" stroke-width="0.4" fill="#4FA743"></path>
                    <path d="M4.80035714,12.8499556 C4.33597321,12.5842969 3.74311607,12.7436809 3.47627143,13.2060089 C3.20941964,13.6683289 3.36951518,14.2585511 3.83390714,14.5242169 L5.69031786,15.5912124 C6.15470179,15.8568782 6.74755893,15.6974871 7.01440357,15.2351662 C7.28125536,14.7728391 7.12115982,14.182624 6.65676786,13.9169582 L4.80035714,12.8499556 L4.80035714,12.8499556 Z" id="Path" stroke="#4FA743" stroke-width="0.4" fill="#4FA743"></path>
                    <path d="M14.0407143,4.53719111 C13.7717536,4.074864 13.1772232,3.91714489 12.7128393,4.184912 C12.2484482,4.45267733 12.090025,5.04456533 12.3589875,5.50688533 L13.4307964,7.35504533 C13.6997571,7.81737244 14.2942875,7.97509156 14.7586786,7.70732444 C15.2230625,7.43955911 15.3814857,6.84767111 15.112525,6.385344 L14.0407161,4.53720178 L14.0407143,4.53719111 Z" id="Path" stroke="#4FA743" stroke-width="0.4" fill="#4FA743"></path>
                    <path d="M28.3125,18.8565333 C28.7040768,18.9891038 29.0824179,19.1491111 29.4451429,19.3341742 C29.8392089,19.5352249 30.2137661,19.7641938 30.5659393,20.0182613 L34.9094571,17.5216213 L35.7520964,17.037296 L36.2373393,17.8739022 L38.3675,21.5469689 L38.8530732,22.384288 L38.0098643,22.8689422 L33.9168821,25.2215111 C33.94603,25.367205 33.9712902,25.5139004 33.9925711,25.661504 C34.0508107,26.0645067 34.0810132,26.4691822 34.0810132,26.8729547 C34.0810132,27.1116604 34.0673954,27.37384 34.0410314,27.6574453 C34.038156,27.6885634 34.0350908,27.7194855 34.0319271,27.7502187 L38.3781414,30.2484231 L39.2168432,30.7305511 L38.7319932,31.566624 L36.6019396,35.2396907 L36.1160289,36.0774862 L35.2778467,35.595744 L31.1797396,33.2402596 C30.8696503,33.5109369 30.5391467,33.7598044 30.1907146,33.9843787 C29.8258878,34.2195484 29.4418324,34.4277102 29.0415378,34.6059982 L29.0415378,39.5997938 L29.0415378,40.5694951 L28.0675074,40.5694951 L23.8073467,40.5694951 L22.8333164,40.5694951 L22.8333164,39.5997938 L22.8333164,34.889376 C22.4417878,34.7568055 22.0634485,34.596848 21.7006807,34.4117831 C21.3066074,34.2107324 20.9320503,33.9817636 20.5798771,33.727696 L16.2362521,36.2243893 L15.3952432,36.7078044 L14.9083753,35.868336 L12.7782682,32.1952693 L12.293411,31.3591964 L13.1321199,30.8770684 L17.2284414,28.5224907 C17.1994903,28.3773708 17.1743708,28.2312996 17.1531321,28.0843182 C17.0949417,27.6813582 17.0646971,27.2766827 17.0646971,26.8729582 C17.0646971,26.6341618 17.0783079,26.371792 17.1046717,26.0879431 C17.1075472,26.0569719 17.110521,26.0261899 17.1136847,25.9955547 L12.7676132,23.4974391 L11.9289043,23.0153538 L12.4137614,22.1792311 L14.543815,18.5061644 L15.0306829,17.666696 L15.8716918,18.1501182 L19.9678704,20.5046427 C20.2774811,20.2345876 20.6074579,19.9861964 20.9551739,19.7620489 C21.3199597,19.5269271 21.7039579,19.3187671 22.1042114,19.1404773 L22.1042114,14.1461129 L22.1042114,13.1764116 L23.0782347,13.1764116 L27.3384489,13.1764116 L28.3124793,13.1764116 L28.3124793,14.1461129 L28.3124793,18.8565307 L28.3125,18.8565333 Z M28.5623804,21.0538667 C28.1068607,20.8214613 27.6213304,20.6406453 27.1139982,20.5193369 L26.3644482,20.3401458 L26.3644482,19.5799431 L26.3644482,15.1158009 L24.0522875,15.1158009 L24.0522875,19.7938276 L24.0522875,20.4781529 L23.3978857,20.706688 C22.9067518,20.8782016 22.4423607,21.1064018 22.0129161,21.3832373 C21.5769071,21.6643147 21.1754589,21.9965991 20.8169589,22.3718293 L20.2896732,22.9237742 L19.6260768,22.5422933 L15.7387375,20.3077867 L14.5803571,22.3052622 L18.6549286,24.6473244 L19.2496071,24.9891484 L19.1229129,25.6624996 C19.0841334,25.8686524 19.0554705,26.0689387 19.0374939,26.2622133 C19.0211975,26.4378284 19.0127611,26.6411662 19.0127611,26.8729493 C19.0127611,27.1992693 19.035195,27.5125582 19.0783825,27.8115324 C19.1238268,28.1260658 19.1908825,28.4310044 19.2778343,28.7246311 L19.4940182,29.4543876 L18.8326718,29.8344889 L14.9448504,32.0691911 L16.1032861,34.0667022 L20.1769289,31.7251556 L20.7747218,31.3816107 L21.2955254,31.8274276 C21.6917986,32.1666258 22.1239771,32.4576853 22.5834254,32.6920853 C23.0389932,32.9245404 23.5244271,33.1052569 24.0318075,33.2265671 L24.7813575,33.4057582 L24.7813575,34.1659609 L24.7813575,38.6301031 L27.0934825,38.6301031 L27.0934825,33.9526453 L27.0934825,33.26832 L27.7478771,33.0397849 C28.2390611,32.8682713 28.7035504,32.6400231 29.1329932,32.3631929 C29.5691004,32.0821084 29.9706414,31.7496356 30.3291468,31.3744053 L30.8550325,30.8239378 L31.5162396,31.2039413 L35.4060611,33.4396924 L36.5653968,31.4405991 L32.4906468,29.0984302 L31.8960182,28.7566987 L32.0226634,28.0832569 C32.0614429,27.8768604 32.0902534,27.676384 32.10823,27.4831591 C32.1245264,27.307691 32.1329629,27.1045422 32.1329629,26.8729476 C32.1329629,26.5465849 32.1105782,26.2332907 32.0673414,25.9342667 C32.0219463,25.6197884 31.9548345,25.3148924 31.8678825,25.0212658 L31.6522754,24.2934204 L32.3168361,23.911408 L36.2001932,21.6793369 L35.0408004,19.6802436 L30.9688718,22.0207947 L30.3710861,22.3644302 L29.8502754,21.9185227 C29.4540504,21.5793244 29.0218718,21.2882649 28.5623754,21.0538649 L28.5623804,21.0538667 Z" id="Shape" stroke="#4FA743" stroke-width="0.4" fill="#4FA743"></path>
                    <path d="M20.0678571,62.0606222 C20.0678571,62.5961458 20.5039643,63.0303164 21.0418804,63.0303164 C21.5798018,63.0303164 22.0159107,62.5961476 22.0159107,62.0606222 L22.0159107,60.4432996 C22.0159107,59.9077689 21.5798036,59.4735982 21.0418804,59.4735982 C20.5039661,59.4735982 20.0678571,59.9077671 20.0678571,60.4432996 L20.0678571,62.0606222 Z" id="Path" stroke="#4FA743" stroke-width="0.4" fill="#4FA743"></path>
                    <path d="M28.4926786,62.0606222 C28.4926786,62.5961458 28.9287857,63.0303164 29.4667089,63.0303164 C30.0046232,63.0303164 30.4407321,62.5961476 30.4407321,62.0606222 L30.4407321,60.4432996 C30.4407321,59.9077689 30.004625,59.4735982 29.4667089,59.4735982 C28.9287875,59.4735982 28.4926786,59.9077671 28.4926786,60.4432996 L28.4926786,62.0606222 Z" id="Path" stroke="#4FA743" stroke-width="0.4" fill="#4FA743"></path>
                    <polygon id="Path" stroke="#4FA743" stroke-width="0.4" fill="#4FA743" points="16.7630357 47.9587556 33.7623214 47.9587556 33.7623214 49.8981333 16.7630357 49.8981333"></polygon>
                    <path d="M25.5728571,22.3397333 C26.8301268,22.3397333 27.9685179,22.8472053 28.7925179,23.6675307 C29.6165125,24.4878631 30.1262429,25.6212018 30.1262429,26.8728284 C30.1262429,28.1244196 29.6165625,29.2577529 28.7925179,30.0781796 C27.9685304,30.8985049 26.830125,31.4059769 25.5728571,31.4059769 C24.3156375,31.4059769 23.17725,30.8985049 22.35325,30.0781796 C21.5292625,29.2578471 21.019525,28.1245084 21.019525,26.8728284 C21.019525,25.6211467 21.5292625,24.4878684 22.35325,23.6675307 C23.1772446,22.8472053 24.3155893,22.3397333 25.5728571,22.3397333 Z M27.4151607,25.0387556 C26.943775,24.5694649 26.2923464,24.2791271 25.5728571,24.2791271 C24.8533625,24.2791271 24.2019839,24.5694649 23.7305893,25.0387556 C23.2592036,25.5080462 22.9675696,26.1565298 22.9675696,26.8728356 C22.9675696,27.5891324 23.2592036,28.2376658 23.7305893,28.7069511 C24.201975,29.1762418 24.8534036,29.4665796 25.5728571,29.4665796 C26.2923518,29.4665796 26.9437804,29.1762418 27.4151607,28.7069511 C27.8865464,28.2376107 28.1781804,27.5890791 28.1781804,26.8728356 C28.1781804,26.1565867 27.8865464,25.5080551 27.4151607,25.0387556 Z" id="Shape" stroke="#4FA743" stroke-width="0.4" fill="#4FA743"></path>
                </g>
            </g>
        </g>
    </g>
</svg>