<?xml version="1.0" encoding="UTF-8"?>
<svg width="94px" height="67px" viewBox="0 0 94 67" version="1.1" xmlns="http://www.w3.org/2000/svg" xmlns:xlink="http://www.w3.org/1999/xlink">
    <title>Auto1080ppi</title>
    <defs>
        <path d="M67.1427869,56.876776 L30.7540984,56.876776 C30.2714163,50.8056378 25.5482162,45.9311153 19.4953123,45.2572796 C13.4424084,44.5834438 7.76282488,48.2998829 5.95677596,54.1162295 C5.03659381,53.8379781 4.11519126,53.5377596 3.19256831,53.2155738 C2.04661202,52.8201639 1.06907104,52.2307104 0.995846995,51.0188525 C0.146466832,37.7410379 0.146466832,24.422514 0.995846995,11.1446995 C1.1715847,8.52693989 2.06491803,6.14349727 3.78934426,4.41907104 C5.51377049,2.69464481 7.92284153,1.96240437 10.5222951,1.62557377 C23.5927869,-0.0659016393 47.2185246,-1.74273224 63.3754098,3.82229508 C63.6174317,3.84419625 63.8501996,3.92597956 64.0527322,4.06027322 C68.9477596,5.8579235 73.1105464,8.30726776 76.0285246,11.679235 C80.2059563,16.5010383 83.3106557,22.7177596 83.9037705,29.4653552 L84.9801639,29.4653552 L85.1888525,29.4653552 C86.4020681,29.4653552 87.3855738,30.4488608 87.3855738,31.6620765 L87.3855738,38.2522404 C87.3855738,39.4654561 86.4020681,40.4489617 85.1888525,40.4489617 L84.0062842,40.4489617 C83.9843169,49.6385792 76.2298907,56.8914208 67.1427869,56.8914208 L67.1427869,56.876776 Z M65.7991257,14.4580874 C66.2702004,19.6277049 66.5142805,24.8034244 66.5313661,29.9852459 L66.5313661,30.494153 C66.5309648,31.0909876 66.7734282,31.6622944 67.2029823,32.0766553 C67.6325365,32.4910162 68.2122005,32.7127584 68.8086339,32.6908743 C71.8582732,32.6319993 74.8901717,32.2116875 77.8408197,31.4387432 C78.8972787,31.1534015 79.582608,30.1339937 79.4480874,29.0479781 C79.1530083,26.7951605 78.5493508,24.5936584 77.6540984,22.5054098 C75.4280874,17.2479235 72.5284153,14.1615301 69.0173224,12.312623 C68.3047235,11.93922 67.4450115,11.985223 66.776329,12.432538 C66.1076465,12.879853 65.7369758,13.6569143 65.8101093,14.4580874 L65.7991257,14.4580874 Z M63.6024044,30.549071 L63.6024044,29.9852459 C63.5895405,23.9370374 63.2571282,17.8937325 62.6065574,11.8806011 C62.5058023,10.8665611 61.7144413,10.0584598 60.7027322,9.93650273 C57.5540984,9.53377049 54.0906011,9.43491803 50.3342077,9.29579235 C49.7234876,9.27393919 49.131267,9.50747661 48.6998417,9.94029144 C48.2684163,10.3731063 48.0367843,10.9660747 48.0606011,11.5767213 L48.7928415,30.6149727 C48.8381158,31.7951821 49.8084857,32.7283544 50.9895628,32.7274869 L61.4349727,32.7274869 C62.6481884,32.7274869 63.631694,31.7439807 63.631694,30.530765 L63.6024044,30.549071 Z M46.6071038,50.2024044 L45.1206557,11.2362295 C45.0753814,10.0560201 44.1050116,9.12284778 42.9239344,9.12371524 C34.0784699,9.12371524 25.7382514,9.8852459 21.784153,10.7785792 C19.0345902,11.3973224 16.6584699,13.0851366 16.6584699,15.9042623 L16.6584699,30.4721858 C16.6584699,32.4942119 18.297646,34.133388 20.3196721,34.133388 L20.4697814,34.133388 C26.5102624,34.0982413 31.691823,38.4329798 32.7238251,44.3847541 C33.0240437,46.0737887 33.3254827,47.7628233 33.6281421,49.4518579 C33.929101,51.2034957 35.4534967,52.4800221 37.230765,52.4687634 L44.4103825,52.4687634 C45.007877,52.4687634 45.5797721,52.2261648 45.9942459,51.7958029 C46.4087196,51.365441 46.6300079,50.784815 46.6071038,50.1877596 L46.6071038,50.2024044 Z" id="path-1"></path>
    </defs>
    <g id="Page-1" stroke="none" stroke-width="1" fill="none" fill-rule="evenodd">
        <g id="Auto1080ppi">
            <g id="Rectangle">
                <mask id="mask-2" fill="white">
                    <use xlink:href="#path-1"></use>
                </mask>
                <use id="Mask" fill="#18AB32" fill-rule="nonzero" xlink:href="#path-1"></use>
                <rect fill="#000000" mask="url(#mask-2)" x="-2" y="-15" width="83" height="30"></rect>
            </g>
            <path d="M18.1009836,61.0688538 C19.6226505,61.0702157 20.9332839,59.9962764 21.2310828,58.5040338 C21.5288817,57.0117912 20.7308683,55.5170404 19.3252399,54.9342188 C17.9196115,54.3513973 16.2980291,54.8429011 15.4525215,56.108045 C14.6070139,57.3731888 14.7731713,59.059456 15.8493443,60.1352459 C16.4459629,60.7333602 17.2561793,61.0693035 18.1009836,61.0688538 L18.1009836,61.0688538 Z M85.5769399,60.4464481 C86.9923582,60.4464481 88.1397814,59.2990249 88.1397814,57.8836066 C88.1397814,56.4681883 86.9923582,55.320765 85.5769399,55.320765 C84.1615216,55.320765 83.0140984,56.4681883 83.0140984,57.8836066 C83.0140984,59.2990249 84.1615216,60.4464481 85.5769399,60.4464481 Z M91.5300546,63.8367213 C89.1302829,66.2356957 85.5250948,66.9599315 82.3850401,65.6738368 C79.2449854,64.3877421 77.1836391,61.3426231 77.1561749,57.9495082 C80.6982122,55.9997192 83.5856017,53.0473731 85.4561202,49.4628415 L85.5732787,49.4628415 C88.9790404,49.4623841 92.0497491,51.5134828 93.3536232,54.6597704 C94.6574974,57.8060579 93.9377801,61.4279725 91.5300546,63.8367213 L91.5300546,63.8367213 Z M24.4934426,64.2760656 C21.4433975,67.3276699 16.6623898,67.7996112 13.0745661,65.4032421 C9.48674232,63.006873 8.09148456,58.4096979 9.74215641,54.4234282 C11.3928283,50.4371584 15.6296379,48.1721625 19.8612798,49.0137508 C24.0929218,49.8553391 27.1406794,53.5690887 27.140496,57.8836066 C27.1428057,60.2815475 26.1903198,62.5817416 24.4934426,64.2760656 L24.4934426,64.2760656 Z" id="Shape" fill="#191919" fill-rule="nonzero"></path>
        </g>
    </g>
</svg>