<svg xmlns="http://www.w3.org/2000/svg" width="74.761" height="51.898" viewBox="0 0 74.761 51.898"><defs><style>.a{fill:#5f7079;}.b{fill:#4b4c4d;}.c{fill:#cdcdcd;}.d{fill:#7d8597;}</style></defs><path class="a" d="M65.976,60.218a8.776,8.776,0,0,0-.954.053,11.762,11.762,0,0,0,.082-1.382A11.553,11.553,0,0,0,51.23,47.581a14,14,0,0,0-27.7,0A11.553,11.553,0,0,0,9.657,58.889a11.762,11.762,0,0,0,.082,1.382,8.784,8.784,0,1,0,4.644,15.5,10.7,10.7,0,0,0,16.089,1.595,8.28,8.28,0,0,0,14.749.79,10.7,10.7,0,0,0,15.157-2.385,8.785,8.785,0,1,0,5.6-15.555Zm0,0" transform="translate(0 -30.407)"/><path class="b" d="M218.686,60.218a8.775,8.775,0,0,0-.954.053,11.774,11.774,0,0,0,.082-1.382,11.553,11.553,0,0,0-13.874-11.308A14,14,0,0,0,178.82,41.3,14,14,0,0,1,198.9,49.34a2.82,2.82,0,0,0,2.715,1.969,11.571,11.571,0,0,1,11.616,10.435,2.859,2.859,0,0,0,2.374,2.562,8.787,8.787,0,0,1,6.251,12.888,8.785,8.785,0,0,0-3.175-16.976Zm0,0" transform="translate(-152.709 -30.407)"/><path class="c" d="M151.863,165.449A5.146,5.146,0,0,1,157,160.309a5.072,5.072,0,0,1,3.664,1.546.88.88,0,1,1-1.267,1.221,3.268,3.268,0,0,0-2.4-1.049,3.423,3.423,0,0,0,0,6.845,3.27,3.27,0,0,0,2.4-1.049.88.88,0,1,1,1.267,1.222A5.074,5.074,0,0,1,157,170.59,5.146,5.146,0,0,1,151.863,165.449Zm0,0" transform="translate(-129.689 -136.901)"/><path class="c" d="M224.984,165.449a5.215,5.215,0,1,1,5.214,5.14A5.178,5.178,0,0,1,224.984,165.449Zm8.636,0a3.422,3.422,0,1,0-3.422,3.422A3.422,3.422,0,0,0,233.62,165.449Zm0,0" transform="translate(-192.133 -136.901)"/><path class="c" d="M316.867,171.445a.833.833,0,0,1-.833.833H310.3a.833.833,0,0,1-.315-1.6c2.318-1.026,5.061-2.935,5.065-4.881,0-1.142-.791-1.691-1.98-1.691-1.042,0-1.8.427-1.94,1.469a.811.811,0,0,1-1.61-.2,3.239,3.239,0,0,1,3.55-2.935c2.2,0,3.751,1.311,3.748,3.352,0,1.927-1.49,3.483-3.78,4.824h2.994A.833.833,0,0,1,316.867,171.445Zm0,0" transform="translate(-264.281 -138.719)"/><g transform="translate(4.632)"><path class="d" d="M107.939,9.032a1.1,1.1,0,0,1-.984-.613L103.6,1.579a1.1,1.1,0,0,1,1.967-.964l3.353,6.841a1.1,1.1,0,0,1-.982,1.577Zm0,0" transform="translate(-93.011 -0.001)"/><path class="d" d="M38.484,54.538a1.093,1.093,0,0,1-.763-.31l-5.664-5.5a1.1,1.1,0,1,1,1.525-1.572l5.664,5.5a1.1,1.1,0,0,1-.763,1.881Zm0,0" transform="translate(-31.724 -40.01)"/><path class="d" d="M371.639,9.032a1.1,1.1,0,0,1-.982-1.577L374.009.615a1.095,1.095,0,0,1,1.967.963l-3.353,6.841A1.1,1.1,0,0,1,371.639,9.032Zm0,0" transform="translate(-321.071 -0.001)"/><path class="d" d="M427.577,54.538a1.1,1.1,0,0,1-.763-1.881l5.664-5.5A1.1,1.1,0,1,1,434,48.732l-5.664,5.5A1.09,1.09,0,0,1,427.577,54.538Zm0,0" transform="translate(-368.84 -40.01)"/></g></svg>