<?xml version="1.0" encoding="UTF-8"?>
<svg width="52px" height="51px" viewBox="0 0 52 51" version="1.1" xmlns="http://www.w3.org/2000/svg" xmlns:xlink="http://www.w3.org/1999/xlink">
    <title>6B985EA2-7DD3-4639-B79F-3346461F3954</title>
    <g id="Page-1" stroke="none" stroke-width="1" fill="none" fill-rule="evenodd">
        <g id="About" transform="translate(-1205.000000, -1945.000000)" fill-rule="nonzero">
            <g id="Group-28" transform="translate(1144.000000, 1945.000000)">
                <g id="Group-29-Copy-2" transform="translate(87.000000, 25.500000) scale(-1, 1) rotate(90.000000) translate(-87.000000, -25.500000) translate(62.000000, 0.000000)">
                    <rect id="Rectangle_64" fill="#F6F6F6" transform="translate(25.000000, 25.750000) rotate(90.000000) translate(-25.000000, -25.750000) " x="0" y="0.75" width="50" height="50"></rect>
                    <rect id="Rectangle_65" fill="#141615" opacity="0" transform="translate(25.000000, 1.000000) rotate(90.000000) translate(-25.000000, -1.000000) " x="24.75" y="-24" width="1" height="50"></rect>
                    <path d="M29.4220045,25.9929339 L21.1810045,17.3769339 C21.0904444,17.2720216 20.9494038,17.2256109 20.8142402,17.2562468 C20.6790767,17.2868827 20.5718303,17.3895697 20.5353549,17.5232756 C20.4988795,17.6569816 20.539123,17.7999043 20.6400045,17.8949339 L28.6330045,26.2519339 L20.6400045,34.6089339 C20.5095843,34.7600235 20.5203648,34.9867943 20.6645298,35.1248303 C20.8086948,35.2628663 21.0357199,35.263791 21.1810045,35.1269339 L29.4220045,26.5109339 C29.5604179,26.3660061 29.5604179,26.1378618 29.4220045,25.9929339 Z" id="Path_141" stroke="#292A2D" fill="#282A2D" transform="translate(25.023969, 26.237965) rotate(90.000000) translate(-25.023969, -26.237965) "></path>
                </g>
            </g>
        </g>
    </g>
</svg>